<?xml version="1.0" encoding="utf-8"?>
<!-- Generator: Adobe Illustrator 19.2.0, SVG Export Plug-In . SVG Version: 6.00 Build 0)  -->
<svg version="1.1" id="Ebene_1" xmlns="http://www.w3.org/2000/svg" xmlns:xlink="http://www.w3.org/1999/xlink" x="0px" y="0px"
	 viewBox="0 0 500 500" style="enable-background:new 0 0 500 500;" xml:space="preserve">
<style type="text/css">
	.st0{fill:#FF8282;}
	.st1{fill:#FF645F;}
	.st2{fill:#8CDBA6;}
	.st3{fill:#21D68F;}
	.st4{fill:#00ABFA;}
	.st5{fill:#BD3B38;}
	.st6{fill:#00B05C;}
	.st7{fill:#78CCC7;}
	.st8{fill:#96DBD6;}
	.st9{fill:#40A6A6;}
	.st10{enable-background:new    ;}
	.st11{fill:#FFFFFF;}
</style>
<g>
	<polygon class="st0" points="160.5,130.4 160.5,132.7 160.5,279.3 172.8,279.3 176.2,279.3 179.1,279.3 179.1,130.4 	"/>
	<g>
		<path class="st1" d="M234.3,293.3c1.3,0,3-1.2,3-2.4V116.4c0-1.3-1.7-2.3-3-2.3h-58.2c-1.3,0-1.7,0.5-1.7,1.2v3.5v11.6
			c0,1.3,0.4,2.3,1.7,2.3h39.5c1.3,0,3,1,3,2.3v137.2c0,1.3-1.7,2.4-3,2.4h-39.5c-1.3,0-1.7,0.4-1.7,1.1v3.5v11.6
			c0,1.3,0.4,2.4,1.7,2.4L234.3,293.3L234.3,293.3z"/>
	</g>
	<polygon class="st2" points="260.6,130.4 260.6,132.7 260.6,279.3 276.2,279.3 279.2,279.3 279.2,130.4 	"/>
	<g>
		<path class="st3" d="M276.9,293.2v-18.6c25.6,0,43.5-31.8,43.5-70.9s-17.9-70.9-43.5-70.9v-18.7c34.9,0,62.1,40.2,62.1,89.6
			C338.9,253,311.8,293.2,276.9,293.2"/>
		<path class="st4" d="M83.7,236v25.7v8.3c0,13.9,8.9,23.4,23,23.4h4H122h13.4c0.6,0,1.7-1.2,1.7-2.4v-14c0-1.3-1.6-2.2-2.9-2.2
			h-13.4H114h-4.2c-6,0-7.6-2.8-7.6-9.7v-11v-15.2v-13.6c0-14-5.7-19.2-12.7-21.7c6.9-2.5,12.7-7.7,12.7-21.7v-9.7v-24.6v-5.8
			c0-6.8,1.3-8.8,7.6-8.8h5.3h6.7h13.6c0.6,0,1.7-1.1,1.7-2.3v-14c0-1.3-1.6-2.3-2.9-2.3H123h-10.6h-5.9c-14.1,0-23,9.1-23,22.7v7.3
			v30.4c0,0-0.5,7-0.8,9.4c-0.9,6.3-8.6,11.7-13.4,11.6H62c-1.3,0-1.8,1-1.8,2.3v14c0,1.3,0.5,2.4,1.8,2.4h6.7
			c6.1-0.1,13.8,5,14.4,12.7C83.4,229.1,83.7,236,83.7,236"/>
		<path class="st5" d="M176.2,114.1h-6.6h-7.4c-1.3,0-1.7,1-1.7,2.3v4.3v9.7v2.3h1.7h14h2.9v-2.3v-14v-2.3H176.2z"/>
		<path class="st5" d="M160.5,276.9v6.6v7.4c0,1.3,0.5,2.4,1.7,2.4h4.3h9.7h2.9v-2.4v-14v-2.2h-2.9h-14h-1.7V276.9L160.5,276.9z"/>
		<path class="st6" d="M276.2,114.1h-6.6h-7.4c-1.3,0-1.7,1-1.7,2.3v4.3v9.7v2.3h1.7h14h3v-2.3v-14v-2.3H276.2z"/>
		<path class="st6" d="M260.6,276.9v6.6v7.4c0,1.3,0.4,2.4,1.7,2.4h4.3h9.7h3v-2.4v-14v-2.2h-3h-14h-1.7V276.9z"/>
		<path class="st7" d="M373.8,236v25.7v8.3c0,13.9,8.7,23.4,22.8,23.4h4H412h13.4c0.6,0,1.9-1.2,1.9-2.4v-14c0-1.3-1.8-2.2-3.1-2.2
			h-13.4H404h-4.2c-6,0-7.4-2.6-7.4-9.4v-4.1v-22.4v-13.6c0-4.5-1.3-8.6-2.4-10.9h-31.2c8.6,2.3,12.2,5.4,14,12.9
			C373.7,230.7,373.8,236,373.8,236"/>
		<path class="st7" d="M372.4,183.9c-1.8,6.1-5.8,9.3-13,11.6h29.3c1.8-4.7,3.6-7.8,3.6-13.9v-9.7v-24.6v-5.8c0-6.8,1.2-8.8,7.4-8.8
			h5.3h6.7h13.7c0.6,0,1.9-1.1,1.9-2.3v-14c0-1.3-1.8-2.3-3.1-2.3H413h-10.6h-5.9c-14.1,0-22.8,9.1-22.8,22.7v7.3v30.4
			C373.8,174.6,373.4,180.9,372.4,183.9"/>
		<path class="st8" d="M377,205c4.7,1.7,9.9,4.5,13.1,9.2h34.2c1.3,0,3.1-1.1,3.1-2.4v-14c0-1.3-1.8-2.3-3.1-2.3h-35.5
			C386.4,200.2,380.9,203.6,377,205"/>
		<path class="st9" d="M352.1,195.5c-1.3,0-1.6,1-1.6,2.3v14c0,1.3,0.3,2.4,1.6,2.4h6.7H390c-2.1-4.7-7.3-7.8-11-9.3
			c3.9-1.4,7.4-4.7,9.7-9.3h-29.3L352.1,195.5L352.1,195.5z"/>
	</g>
</g>
<path d="M115.1,335c6.4,0,10.3,5,10.3,10.8s-3.9,10.8-10.3,10.8s-10.3-5-10.3-10.8S108.7,335,115.1,335z M115.1,353.4
	c4.3,0,6.7-3.6,6.7-7.6s-2.4-7.6-6.7-7.6c-4.3,0-6.7,3.6-6.7,7.6S110.8,353.4,115.1,353.4z"/>
<path d="M145.2,342c-0.3-2.4-1.5-3.8-4-3.8c-3.6,0-7.1,3.4-7.1,10.5v7.5h-3.5v-20.9h3.5v3.8c1.6-2.5,4.2-4.2,7.7-4.2
	c4.1,0,6.6,2.5,6.9,7H145.2z"/>
<rect x="157.9" y="311.2" class="st1" width="271.5" height="63.7"/>
<g class="st10">
	<path class="st11" d="M192.1,327.2v28.9h-4L176,333.9v22.3h-3.7v-28.9h4l12.2,22.3v-22.3H192.1z"/>
	<path class="st11" d="M197.3,335.3h9.8v17.8h7.7v3h-18.4v-3h7.2v-14.7h-6.4L197.3,335.3L197.3,335.3z M205.2,326.8
		c1.6,0,2.9,1.3,2.9,2.9c0,1.6-1.3,2.8-2.9,2.8c-1.6,0-2.9-1.3-2.9-2.8C202.3,328.1,203.6,326.8,205.2,326.8z"/>
	<path class="st11" d="M237.5,346.5h-16.3c0.2,4.2,2.7,6.9,6.4,6.9c3.1,0,5.3-1.5,6.7-4.2l2.8,1.4c-2.2,4.4-5.6,5.8-9.5,5.8
		c-6.1,0-10-4.6-10-10.8c0-5.8,3.8-10.8,10-10.8c6.5,0,9.9,4.6,9.9,10.1V346.5z M221.4,343.3h12.4c-0.6-3.3-2.8-5.2-6.2-5.2
		C224.2,338.1,222.1,340.2,221.4,343.3z"/>
	<path class="st11" d="M249.4,335c2.9,0,5.2,1.4,6.4,3v-11.1h3.4v29.3h-3.4v-2.7c-1.1,1.6-3.5,3.1-6.4,3.1c-6.2,0-9.6-4.4-9.6-10.8
		S243.2,335,249.4,335z M249.7,353.4c4,0,6.3-3.1,6.3-7.6s-2.4-7.6-6.3-7.6s-6.3,3.1-6.3,7.6S245.7,353.4,249.7,353.4z"/>
	<path class="st11" d="M282.4,346.5h-16.3c0.2,4.2,2.7,6.9,6.4,6.9c3.1,0,5.3-1.5,6.7-4.2l2.8,1.4c-2.2,4.4-5.6,5.8-9.5,5.8
		c-6.1,0-10-4.6-10-10.8c0-5.8,3.8-10.8,10-10.8c6.5,0,9.9,4.6,9.9,10.1V346.5z M266.3,343.3h12.4c-0.6-3.3-2.8-5.2-6.2-5.2
		C269.1,338.1,267.1,340.2,266.3,343.3z"/>
	<path class="st11" d="M301.5,341.9c-0.3-2.4-1.5-3.8-4-3.8c-3.7,0-7.1,3.4-7.1,10.5v7.5H287v-20.9h3.4v3.8c1.6-2.6,4.2-4.2,7.7-4.2
		c4.2,0,6.6,2.5,6.9,7L301.5,341.9L301.5,341.9z"/>
	<path class="st11" d="M324,341.9c-0.3-2.4-1.5-3.8-4-3.8c-3.7,0-7.1,3.4-7.1,10.5v7.5h-3.4v-20.9h3.4v3.8c1.6-2.6,4.2-4.2,7.7-4.2
		c4.2,0,6.6,2.5,6.9,7L324,341.9L324,341.9z"/>
	<path class="st11" d="M348.7,356.2h-3.4v-13.7c0-3-1.4-4.4-3.8-4.4c-3.3,0-6.6,3.4-6.6,9.3v8.7h-3.4v-29.3h3.4v12.3
		c1.5-2.2,4.3-4.2,7.6-4.2c4.5,0,6.4,2.6,6.4,6.8L348.7,356.2L348.7,356.2z"/>
	<path class="st11" d="M372.3,346.5H356c0.2,4.2,2.7,6.9,6.4,6.9c3.1,0,5.3-1.5,6.7-4.2l2.8,1.4c-2.2,4.4-5.6,5.8-9.5,5.8
		c-6.1,0-10-4.6-10-10.8c0-5.8,3.8-10.8,10-10.8c6.5,0,9.9,4.6,9.9,10.1V346.5z M356.2,343.3h12.4c-0.6-3.3-2.8-5.2-6.2-5.2
		C359,338.1,357,340.2,356.2,343.3z"/>
	<path class="st11" d="M377.1,335.3h9.8v17.8h7.7v3h-18.4v-3h7.2v-14.7H377L377.1,335.3L377.1,335.3z M384.9,326.8
		c1.6,0,2.9,1.3,2.9,2.9c0,1.6-1.3,2.8-2.9,2.8c-1.6,0-2.9-1.3-2.9-2.8C382.1,328.1,383.3,326.8,384.9,326.8z"/>
	<path class="st11" d="M415.8,356.2h-3.4v-13.8c0-2.9-1.4-4.2-3.8-4.2c-3.3,0-6.2,3.6-6.2,9.7v8.4h-3.4v-20.9h3.4v3.8
		c1.5-2.4,4.1-4.2,7.1-4.2c4.3,0,6.4,2.6,6.4,6.6L415.8,356.2L415.8,356.2z"/>
</g>
<g class="st10">
	<path d="M102.1,331.2c-1.3-0.8-2.2-1.1-3.4-1.1c-2,0-3.1,1.2-3.1,3.9v1.4h8.1v3.1h-8.1v17.7h-3.5v-17.7h-5.9v-3.1h5.9V334
		c0-5,2.4-7.2,6.4-7.2c1.9,0,3.2,0.5,4.3,1.2L102.1,331.2z"/>
</g>
</svg>
