<?xml version="1.0" encoding="utf-8"?>
<!-- Generator: Adobe Illustrator 19.2.0, SVG Export Plug-In . SVG Version: 6.00 Build 0)  -->
<svg version="1.1" id="Ebene_1" xmlns="http://www.w3.org/2000/svg" xmlns:xlink="http://www.w3.org/1999/xlink" x="0px" y="0px"
	 viewBox="0 0 500 500" style="enable-background:new 0 0 500 500;" xml:space="preserve">
<style type="text/css">
	.st0{fill:#FF8282;}
	.st1{fill:#FF645F;}
	.st2{fill:#8CDBA6;}
	.st3{fill:#21D68F;}
	.st4{fill:#00ABFA;}
	.st5{fill:#BD3B38;}
	.st6{fill:#00B05C;}
	.st7{fill:#78CCC7;}
	.st8{fill:#96DBD6;}
	.st9{fill:#40A6A6;}
	.st10{enable-background:new    ;}
	.st11{fill:#FFFFFF;}
</style>
<g>
	<polygon class="st0" points="163.5,103.4 163.5,105.7 163.5,252.3 175.8,252.3 179.2,252.3 182.1,252.3 182.1,103.4 	"/>
	<g>
		<path class="st1" d="M237.3,266.3c1.3,0,3-1.2,3-2.4V89.4c0-1.3-1.7-2.3-3-2.3h-58.2c-1.3,0-1.7,0.5-1.7,1.2v3.5v11.6
			c0,1.3,0.4,2.3,1.7,2.3h39.5c1.3,0,3,1,3,2.3v137.2c0,1.3-1.7,2.4-3,2.4h-39.5c-1.3,0-1.7,0.4-1.7,1.1v3.5v11.6
			c0,1.3,0.4,2.4,1.7,2.4L237.3,266.3L237.3,266.3z"/>
	</g>
	<polygon class="st2" points="263.6,103.4 263.6,105.7 263.6,252.3 279.2,252.3 282.2,252.3 282.2,103.4 	"/>
	<g>
		<path class="st3" d="M279.9,266.2v-18.6c25.6,0,43.5-31.8,43.5-70.9s-17.9-70.9-43.5-70.9V87.1c34.9,0,62.1,40.2,62.1,89.6
			C341.9,226,314.8,266.2,279.9,266.2"/>
		<path class="st4" d="M86.7,209v25.7v8.3c0,13.9,8.9,23.4,23,23.4h4H125h13.4c0.6,0,1.7-1.2,1.7-2.4v-14c0-1.3-1.6-2.2-2.9-2.2
			h-13.4H117h-4.2c-6,0-7.6-2.8-7.6-9.7v-11v-15.2v-13.6c0-14-5.7-19.2-12.7-21.7c6.9-2.5,12.7-7.7,12.7-21.7v-9.7v-24.6v-5.8
			c0-6.8,1.3-8.8,7.6-8.8h5.3h6.7h13.6c0.6,0,1.7-1.1,1.7-2.3v-14c0-1.3-1.6-2.3-2.9-2.3H126h-10.6h-5.9c-14.1,0-23,9.1-23,22.7v7.3
			v30.4c0,0-0.5,7-0.8,9.4c-0.9,6.3-8.6,11.7-13.4,11.6H65c-1.3,0-1.8,1-1.8,2.3v14c0,1.3,0.5,2.4,1.8,2.4h6.7
			c6.1-0.1,13.8,5,14.4,12.7C86.4,202.1,86.7,209,86.7,209"/>
		<path class="st5" d="M179.2,87.1h-6.6h-7.4c-1.3,0-1.7,1-1.7,2.3v4.3v9.7v2.3h1.7h14h2.9v-2.3v-14v-2.3H179.2z"/>
		<path class="st5" d="M163.5,249.9v6.6v7.4c0,1.3,0.5,2.4,1.7,2.4h4.3h9.7h2.9v-2.4v-14v-2.2h-2.9h-14h-1.7V249.9L163.5,249.9z"/>
		<path class="st6" d="M279.2,87.1h-6.6h-7.4c-1.3,0-1.7,1-1.7,2.3v4.3v9.7v2.3h1.7h14h3v-2.3v-14v-2.3H279.2z"/>
		<path class="st6" d="M263.6,249.9v6.6v7.4c0,1.3,0.4,2.4,1.7,2.4h4.3h9.7h3v-2.4v-14v-2.2h-3h-14h-1.7V249.9z"/>
		<path class="st7" d="M376.8,209v25.7v8.3c0,13.9,8.7,23.4,22.8,23.4h4H415h13.4c0.6,0,1.9-1.2,1.9-2.4v-14c0-1.3-1.8-2.2-3.1-2.2
			h-13.4H407h-4.2c-6,0-7.4-2.6-7.4-9.4v-4.1v-22.4v-13.6c0-4.5-1.3-8.6-2.4-10.9h-31.2c8.6,2.3,12.2,5.4,14,12.9
			C376.7,203.7,376.8,209,376.8,209"/>
		<path class="st7" d="M375.4,156.9c-1.8,6.1-5.8,9.3-13,11.6h29.3c1.8-4.7,3.6-7.8,3.6-13.9v-9.7v-24.6v-5.8c0-6.8,1.2-8.8,7.4-8.8
			h5.3h6.7h13.7c0.6,0,1.9-1.1,1.9-2.3v-14c0-1.3-1.8-2.3-3.1-2.3H416h-10.6h-5.9c-14.1,0-22.8,9.1-22.8,22.7v7.3v30.4
			C376.8,147.6,376.4,153.9,375.4,156.9"/>
		<path class="st8" d="M380,178c4.7,1.7,9.9,4.5,13.1,9.2h34.2c1.3,0,3.1-1.1,3.1-2.4v-14c0-1.3-1.8-2.3-3.1-2.3h-35.5
			C389.4,173.2,383.9,176.6,380,178"/>
		<path class="st9" d="M355.1,168.5c-1.3,0-1.6,1-1.6,2.3v14c0,1.3,0.3,2.4,1.6,2.4h6.7H393c-2.1-4.7-7.3-7.8-11-9.3
			c3.9-1.4,7.4-4.7,9.7-9.3h-29.3L355.1,168.5L355.1,168.5z"/>
	</g>
</g>
<path d="M124,290.4c8,0,12.8,6.3,12.8,13.5s-4.9,13.5-12.8,13.5s-12.8-6.3-12.8-13.5S116,290.4,124,290.4z M124,313.3
	c5.3,0,8.4-4.5,8.4-9.5s-3.1-9.5-8.4-9.5s-8.4,4.5-8.4,9.5S118.7,313.3,124,313.3z"/>
<path d="M161.7,299.1c-0.4-3-1.9-4.8-5-4.8c-4.6,0-8.9,4.3-8.9,13.1v9.4h-4.3v-26.1h4.3v4.8c2-3.2,5.3-5.2,9.6-5.2
	c5.2,0,8.3,3.1,8.6,8.7H161.7z"/>
<rect x="89.5" y="333.2" class="st1" width="339.5" height="79.7"/>
<g class="st10">
	<path class="st11" d="M132.3,353.3v36.2h-5l-15.2-27.9v27.9h-4.6v-36.2h5l15.2,27.9v-27.9H132.3z"/>
	<path class="st11" d="M138.7,363.4H151v22.3h9.6v3.8h-23v-3.8h9v-18.4h-8L138.7,363.4L138.7,363.4z M148.6,352.8
		c2,0,3.6,1.6,3.6,3.6s-1.6,3.5-3.6,3.5s-3.6-1.6-3.6-3.5C145,354.4,146.6,352.8,148.6,352.8z"/>
	<path class="st11" d="M189,377.4h-20.4c0.3,5.2,3.4,8.6,8,8.6c3.9,0,6.6-1.9,8.4-5.2l3.5,1.8c-2.8,5.5-7,7.3-11.9,7.3
		c-7.6,0-12.5-5.8-12.5-13.5c0-7.3,4.7-13.5,12.5-13.5c8.1,0,12.4,5.7,12.4,12.6V377.4z M168.9,373.4h15.5c-0.8-4.1-3.5-6.5-7.8-6.5
		C172.4,366.9,169.8,369.5,168.9,373.4z"/>
	<path class="st11" d="M203.9,363c3.6,0,6.5,1.8,8,3.7v-13.9h4.3v36.6h-4.3V386c-1.4,2-4.4,3.9-8,3.9c-7.7,0-12-5.5-12-13.5
		S196.2,363,203.9,363z M204.3,386c5,0,7.9-3.9,7.9-9.5s-3-9.5-7.9-9.5s-7.9,3.9-7.9,9.5S199.3,386,204.3,386z"/>
	<path class="st11" d="M245.2,377.4h-20.4c0.3,5.2,3.4,8.6,8,8.6c3.9,0,6.6-1.9,8.4-5.2l3.5,1.8c-2.8,5.5-7,7.3-11.9,7.3
		c-7.6,0-12.5-5.8-12.5-13.5c0-7.3,4.7-13.5,12.5-13.5c8.1,0,12.4,5.7,12.4,12.6V377.4z M225.1,373.4h15.5c-0.8-4.1-3.5-6.5-7.8-6.5
		C228.6,366.9,226,369.5,225.1,373.4z"/>
	<path class="st11" d="M269.1,371.7c-0.4-3-1.9-4.8-5-4.8c-4.6,0-8.9,4.3-8.9,13.1v9.4h-4.3v-26.1h4.3v4.8c2-3.2,5.3-5.2,9.6-5.2
		c5.2,0,8.3,3.1,8.6,8.7h-4.3V371.7z"/>
	<path class="st11" d="M297.2,371.7c-0.4-3-1.9-4.8-5-4.8c-4.6,0-8.9,4.3-8.9,13.1v9.4H279v-26.1h4.3v4.8c2-3.2,5.3-5.2,9.6-5.2
		c5.2,0,8.3,3.1,8.6,8.7h-4.3V371.7z"/>
	<path class="st11" d="M328.1,389.5h-4.3v-17.1c0-3.8-1.7-5.5-4.8-5.5c-4.1,0-8.3,4.2-8.3,11.6v10.9h-4.3v-36.6h4.3v15.4
		c1.9-2.8,5.4-5.2,9.5-5.2c5.6,0,8,3.3,8,8.5v18H328.1z"/>
	<path class="st11" d="M357.6,377.4h-20.4c0.3,5.2,3.4,8.6,8,8.6c3.9,0,6.6-1.9,8.4-5.2l3.5,1.8c-2.8,5.5-7,7.3-11.9,7.3
		c-7.6,0-12.5-5.8-12.5-13.5c0-7.3,4.7-13.5,12.5-13.5c8.1,0,12.4,5.7,12.4,12.6V377.4z M337.5,373.4H353c-0.8-4.1-3.5-6.5-7.8-6.5
		C341,366.9,338.4,369.5,337.5,373.4z"/>
	<path class="st11" d="M363.6,363.4h12.3v22.3h9.6v3.8h-23v-3.8h9v-18.4h-8v-3.9H363.6z M373.4,352.8c2,0,3.6,1.6,3.6,3.6
		s-1.6,3.5-3.6,3.5s-3.6-1.6-3.6-3.5C369.8,354.4,371.4,352.8,373.4,352.8z"/>
	<path class="st11" d="M412,389.5h-4.3v-17.2c0-3.6-1.7-5.3-4.8-5.3c-4.1,0-7.7,4.5-7.7,12.1v10.5h-4.3v-26.1h4.3v4.8
		c1.9-3,5.1-5.2,8.9-5.2c5.4,0,8,3.3,8,8.3v18.1H412z"/>
</g>
<g class="st10">
	<path d="M107.8,285.6c-1.6-1-2.8-1.4-4.2-1.4c-2.5,0-3.8,1.6-3.8,4.9v1.7h10.1v3.9H99.8v22.2h-4.3v-22.2h-7.3v-3.9h7.3v-1.6
		c0-6.3,3.1-9,8-9c2.4,0,4,0.6,5.4,1.5L107.8,285.6z"/>
</g>
</svg>
