<?xml version="1.0" encoding="utf-8"?>
<!-- Generator: Adobe Illustrator 19.2.0, SVG Export Plug-In . SVG Version: 6.00 Build 0)  -->
<svg version="1.1" id="Ebene_1" xmlns="http://www.w3.org/2000/svg" xmlns:xlink="http://www.w3.org/1999/xlink" x="0px" y="0px"
	 viewBox="0 0 978 380" style="enable-background:new 0 0 978 380;" xml:space="preserve">
<style type="text/css">
	.st0{fill:#FF8282;}
	.st1{fill:#FF645F;}
	.st2{fill:#8CDBA6;}
	.st3{fill:#21D68F;}
	.st4{fill:#00ABFA;}
	.st5{fill:#BD3B38;}
	.st6{fill:#00B05C;}
	.st7{fill:#78CCC7;}
	.st8{fill:#96DBD6;}
	.st9{fill:#40A6A6;}
	.st10{enable-background:new    ;}
	.st11{fill:#FFFFFF;}
</style>
<g>
	<polygon class="st0" points="171.3,116.2 171.3,118.5 171.3,265.1 183.6,265.1 187,265.1 189.9,265.1 189.9,116.2 	"/>
	<g>
		<path class="st1" d="M245.1,279.1c1.3,0,3-1.2,3-2.4V102.2c0-1.3-1.7-2.3-3-2.3H187c-1.3,0-1.7,0.5-1.7,1.2v3.5v11.6
			c0,1.3,0.4,2.3,1.7,2.3h39.5c1.3,0,3,1,3,2.3V258c0,1.3-1.7,2.4-3,2.4H187c-1.3,0-1.7,0.4-1.7,1.1v3.5v11.6c0,1.3,0.4,2.4,1.7,2.4
			L245.1,279.1L245.1,279.1z"/>
	</g>
	<polygon class="st2" points="271.4,116.2 271.4,118.5 271.4,265.1 287,265.1 290,265.1 290,116.2 	"/>
	<g>
		<path class="st3" d="M287.7,279v-18.6c25.6,0,43.5-31.8,43.5-70.9s-17.9-70.9-43.5-70.9V99.9c34.9,0,62.1,40.2,62.1,89.6
			C349.8,238.8,322.6,279,287.7,279"/>
		<path class="st4" d="M94.5,221.7v25.7v8.3c0,13.9,8.9,23.4,23,23.4h4h11.4h13.4c0.6,0,1.7-1.2,1.7-2.4v-14c0-1.3-1.6-2.2-2.9-2.2
			h-13.4h-6.8h-4.2c-6,0-7.6-2.8-7.6-9.7v-11v-15.2V211c0-14-5.7-19.2-12.7-21.7c6.9-2.5,12.7-7.7,12.7-21.7v-9.7v-24.6v-5.8
			c0-6.8,1.3-8.8,7.6-8.8h5.3h6.7h13.6c0.6,0,1.7-1.1,1.7-2.3v-14c0-1.3-1.6-2.3-2.9-2.3h-11.2h-10.6h-5.9c-14.1,0-23,9.1-23,22.7
			v7.3v30.4c0,0-0.5,7-0.8,9.4c-0.9,6.3-8.6,11.7-13.4,11.6H73c-1.3,0-1.8,1-1.8,2.3v14c0,1.3,0.5,2.4,1.8,2.4h6.7
			c6.1-0.1,13.8,5,14.4,12.7C94.2,214.9,94.5,221.7,94.5,221.7"/>
		<path class="st5" d="M187,99.9h-6.6H173c-1.3,0-1.7,1-1.7,2.3v4.3v9.7v2.3h1.7h14h2.9v-2.3v-14v-2.3H187z"/>
		<path class="st5" d="M171.3,262.7v6.6v7.4c0,1.3,0.5,2.4,1.7,2.4h4.3h9.7h2.9v-2.4v-14v-2.2H187h-14h-1.7V262.7L171.3,262.7z"/>
		<path class="st6" d="M287,99.9h-6.6H273c-1.3,0-1.7,1-1.7,2.3v4.3v9.7v2.3h1.7h14h3v-2.3v-14v-2.3H287z"/>
		<path class="st6" d="M271.4,262.7v6.6v7.4c0,1.3,0.4,2.4,1.7,2.4h4.3h9.7h3v-2.4v-14v-2.2h-3h-14h-1.7V262.7z"/>
		<path class="st7" d="M384.6,221.7v25.7v8.3c0,13.9,8.7,23.4,22.8,23.4h4h11.4h13.4c0.6,0,1.9-1.2,1.9-2.4v-14
			c0-1.3-1.8-2.2-3.1-2.2h-13.4h-6.8h-4.2c-6,0-7.4-2.6-7.4-9.4V247v-22.4V211c0-4.5-1.3-8.6-2.4-10.9h-31.2
			c8.6,2.3,12.2,5.4,14,12.9C384.5,216.5,384.6,221.7,384.6,221.7"/>
		<path class="st7" d="M383.3,169.7c-1.8,6.1-5.8,9.3-13,11.6h29.3c1.8-4.7,3.6-7.8,3.6-13.9v-9.7v-24.6v-5.8c0-6.8,1.2-8.8,7.4-8.8
			h5.3h6.7h13.7c0.6,0,1.9-1.1,1.9-2.3v-14c0-1.3-1.8-2.3-3.1-2.3h-11.2h-10.6h-5.9c-14.1,0-22.8,9.1-22.8,22.7v7.3v30.4
			C384.6,160.3,384.2,166.7,383.3,169.7"/>
		<path class="st8" d="M387.8,190.8c4.7,1.7,9.9,4.5,13.1,9.2H435c1.3,0,3.1-1.1,3.1-2.4v-14c0-1.3-1.8-2.3-3.1-2.3h-35.5
			C397.2,186,391.7,189.4,387.8,190.8"/>
		<path class="st9" d="M362.9,181.3c-1.3,0-1.6,1-1.6,2.3v14c0,1.3,0.3,2.4,1.6,2.4h6.7h31.2c-2.1-4.7-7.3-7.8-11-9.3
			c3.9-1.4,7.4-4.7,9.7-9.3h-29.3L362.9,181.3L362.9,181.3z"/>
	</g>
</g>
<g class="st10">
	<path d="M529.9,108.5c-2.2-1.4-3.9-1.9-5.8-1.9c-3.4,0-5.3,2.1-5.3,6.8v2.4h14v5.4h-14v30.7h-6v-30.7h-10.2v-5.4h10.2v-2.2
		c0-8.7,4.2-12.4,11.1-12.4c3.3,0,5.5,0.9,7.5,2.1L529.9,108.5z"/>
</g>
<g class="st10">
	<path d="M552.4,115.2c11,0,17.8,8.7,17.8,18.6s-6.7,18.6-17.8,18.6c-11,0-17.8-8.7-17.8-18.6S541.4,115.2,552.4,115.2z M552.4,147
		c7.4,0,11.6-6.2,11.6-13.2c0-6.9-4.2-13.2-11.6-13.2s-11.6,6.2-11.6,13.2C540.8,140.8,545,147,552.4,147z"/>
	<path d="M603.7,127.2c-0.5-4.2-2.7-6.6-6.9-6.6c-6.3,0-12.3,5.9-12.3,18.2v13h-6v-36.1h6v6.7c2.8-4.4,7.3-7.2,13.3-7.2
		c7.2,0,11.5,4.3,11.9,12H603.7z"/>
</g>
<rect x="475.8" y="166.4" class="st1" width="435.7" height="110.3"/>
<g>
	<path class="st11" d="M532,194.1v46.2h-6.3l-19.3-35.6v35.6h-5.8v-46.2h6.3l19.3,35.6v-35.6H532z"/>
	<path class="st11" d="M540,207.1h15.7v28.4H568v4.9h-29.3v-4.9h11.5V212H540V207.1z M552.5,193.6c2.6,0,4.6,2,4.6,4.6
		c0,2.5-2,4.5-4.6,4.5c-2.5,0-4.6-2-4.6-4.5C547.9,195.7,550,193.6,552.5,193.6z"/>
	<path class="st11" d="M603.8,224.9h-26c0.3,6.6,4.4,11,10.2,11c5,0,8.4-2.4,10.7-6.6l4.4,2.3c-3.6,7-8.9,9.3-15.1,9.3
		c-9.7,0-15.9-7.5-15.9-17.2c0-9.4,5.9-17.2,15.9-17.2c10.3,0,15.8,7.3,15.8,16L603.8,224.9L603.8,224.9z M578.2,219.9h19.7
		c-1-5.3-4.5-8.3-9.9-8.3C582.7,211.6,579.3,214.9,578.2,219.9z"/>
	<path class="st11" d="M622.6,206.5c4.6,0,8.3,2.2,10.2,4.8v-17.7h5.5v46.7h-5.5v-4.4c-1.8,2.6-5.6,5-10.2,5
		c-9.8,0-15.2-7-15.2-17.2S612.8,206.5,622.6,206.5z M623.1,235.8c6.3,0,10.1-5,10.1-12.1s-3.8-12.1-10.1-12.1s-10.1,5-10.1,12.1
		S616.8,235.8,623.1,235.8z"/>
	<path class="st11" d="M675.1,224.9h-26c0.3,6.6,4.4,11,10.2,11c5,0,8.4-2.4,10.7-6.6l4.4,2.3c-3.6,7-8.9,9.3-15.1,9.3
		c-9.7,0-15.9-7.5-15.9-17.2c0-9.4,5.9-17.2,15.9-17.2c10.3,0,15.8,7.3,15.8,16L675.1,224.9L675.1,224.9z M649.5,219.9h19.7
		c-1-5.3-4.5-8.3-9.9-8.3C653.9,211.6,650.6,214.9,649.5,219.9z"/>
	<path class="st11" d="M705.4,217.6c-0.5-3.8-2.4-6.1-6.4-6.1c-5.8,0-11.3,5.5-11.3,16.8v12h-5.5V207h5.5v6.1
		c2.6-4,6.7-6.7,12.3-6.7c6.6,0,10.6,4,11,11.1L705.4,217.6L705.4,217.6z"/>
	<path class="st11" d="M741,217.6c-0.5-3.8-2.4-6.1-6.4-6.1c-5.8,0-11.3,5.5-11.3,16.8v12h-5.5V207h5.5v6.1c2.6-4,6.7-6.7,12.3-6.7
		c6.6,0,10.6,4,11,11.1L741,217.6L741,217.6z"/>
	<path class="st11" d="M780.2,240.3h-5.5v-21.8c0-4.8-2.1-7-6.1-7c-5.2,0-10.6,5.3-10.6,14.8v13.9h-5.5v-46.7h5.5v19.6
		c2.4-3.6,6.9-6.7,12.1-6.7c7.1,0,10.2,4.2,10.2,10.8v23.1H780.2z"/>
	<path class="st11" d="M817.6,224.9h-26c0.3,6.6,4.4,11,10.2,11c5,0,8.4-2.4,10.7-6.6l4.4,2.3c-3.6,7-8.9,9.3-15.1,9.3
		c-9.7,0-15.9-7.5-15.9-17.2c0-9.4,5.9-17.2,15.9-17.2c10.3,0,15.8,7.3,15.8,16L817.6,224.9L817.6,224.9z M792,219.9h19.7
		c-1-5.3-4.5-8.3-9.9-8.3C796.5,211.6,793.1,214.9,792,219.9z"/>
	<path class="st11" d="M825.1,207.1h15.7v28.4h12.3v4.9h-29.3v-4.9h11.5V212h-10.2V207.1z M837.6,193.6c2.6,0,4.6,2,4.6,4.6
		c0,2.5-2,4.5-4.6,4.5c-2.5,0-4.6-2-4.6-4.5C833.1,195.7,835.1,193.6,837.6,193.6z"/>
	<path class="st11" d="M886.7,240.3h-5.5v-22c0-4.6-2.2-6.8-6.1-6.8c-5.2,0-9.8,5.7-9.8,15.4v13.4h-5.5V207h5.5v6.1
		c2.4-3.8,6.5-6.7,11.3-6.7c6.9,0,10.2,4.2,10.2,10.6v23.3H886.7z"/>
</g>
</svg>
